<svg id="Capa_1" enable-background="new 0 0 512 512" height="512" viewBox="0 0 512 512" width="512" xmlns="http://www.w3.org/2000/svg"><g><path d="m504.5 167.662c4.142 0 7.5-3.357 7.5-7.5s-3.358-7.5-7.5-7.5h-33.101v-20.929h33.101c4.142 0 7.5-3.357 7.5-7.5s-3.358-7.5-7.5-7.5h-33.101v-3.738c0-18.054-14.688-32.741-32.742-32.741-10.148 0-19.232 4.641-25.242 11.91-6.01-7.27-15.094-11.911-25.242-11.911s-19.232 4.641-25.242 11.911c-6.01-7.27-15.094-11.911-25.242-11.911s-19.231 4.641-25.242 11.911c-6.01-7.27-15.094-11.911-25.242-11.911s-19.232 4.641-25.242 11.911c-6.01-7.27-15.094-11.911-25.242-11.911s-19.232 4.641-25.242 11.911c-6.01-7.27-15.094-11.91-25.242-11.91s-19.232 4.641-25.242 11.911c-6.01-7.27-15.094-11.911-25.242-11.911-18.054 0-32.742 14.688-32.742 32.741v3.739h-77.547c-14.041 0-25.464 11.423-25.464 25.464s11.423 25.464 25.464 25.464h20.374c4.142 0 7.5-3.357 7.5-7.5s-3.358-7.5-7.5-7.5h-20.374c-5.77 0-10.464-4.694-10.464-10.464s4.694-10.464 10.464-10.464h77.545v20.928h-24.18c-4.142 0-7.5 3.357-7.5 7.5s3.358 7.5 7.5 7.5h24.181v119.552h-25.708c-7.815-10.543-20.344-17.393-34.446-17.393-23.631 0-42.856 19.225-42.856 42.856 0 14.102 6.849 26.631 17.392 34.446v77.125c0 4.143 3.358 7.5 7.5 7.5s7.5-3.357 7.5-7.5v-70.011c3.351.844 6.855 1.298 10.464 1.298s7.114-.453 10.464-1.298v70.011c0 4.143 3.358 7.5 7.5 7.5s7.5-3.357 7.5-7.5v-77.125c3.418-2.534 6.447-5.563 8.981-8.981h25.708v60.863c0 18.054 14.688 32.742 32.742 32.742 10.148 0 19.232-4.641 25.242-11.911 6.01 7.27 15.094 11.911 25.242 11.911s19.232-4.641 25.242-11.911c6.01 7.27 15.094 11.911 25.242 11.911s19.232-4.641 25.242-11.911c6.01 7.27 15.094 11.911 25.242 11.911s19.232-4.641 25.242-11.911c6.01 7.27 15.094 11.911 25.242 11.911s19.231-4.641 25.242-11.911c6.01 7.27 15.094 11.911 25.242 11.911s19.232-4.641 25.242-11.911c6.01 7.27 15.094 11.911 25.242 11.911 18.054 0 32.742-14.688 32.742-32.742v-13.842c0-4.143-3.358-7.5-7.5-7.5s-7.5 3.357-7.5 7.5v13.842c0 9.783-7.959 17.742-17.742 17.742s-17.742-7.959-17.742-17.742v-286.01c0-9.782 7.959-17.741 17.742-17.741s17.742 7.959 17.742 17.741v239.178c0 4.143 3.358 7.5 7.5 7.5s7.5-3.357 7.5-7.5v-14.03h33.103c4.142 0 7.5-3.357 7.5-7.5s-3.358-7.5-7.5-7.5h-33.101v-20.929h33.101c4.142 0 7.5-3.357 7.5-7.5s-3.358-7.5-7.5-7.5h-33.101v-119.552zm-489.5 145.015c0-15.36 12.497-27.856 27.856-27.856s27.856 12.496 27.856 27.856-12.496 27.856-27.856 27.856-27.856-12.495-27.856-27.856zm69.415 10.465c.844-3.351 1.298-6.855 1.298-10.465 0-3.609-.453-7.113-1.297-10.464h18.595v20.929zm101.821 93.606c-9.783 0-17.742-7.959-17.742-17.742v-192.176c0-4.143-3.358-7.5-7.5-7.5s-7.5 3.357-7.5 7.5v192.176c0 9.783-7.959 17.742-17.742 17.742s-17.742-7.959-17.742-17.742v-286.011c0-9.782 7.959-17.741 17.742-17.741s17.742 7.959 17.742 17.741v60.845c0 4.143 3.358 7.5 7.5 7.5s7.5-3.357 7.5-7.5v-60.845c0-9.782 7.959-17.741 17.742-17.741s17.742 7.959 17.742 17.741v286.011c.001 9.783-7.958 17.742-17.742 17.742zm50.484 0c-9.783 0-17.742-7.959-17.742-17.742v-286.011c0-9.783 7.959-17.742 17.742-17.742s17.742 7.959 17.742 17.742v286.011c0 9.783-7.959 17.742-17.742 17.742zm50.485 0c-9.783 0-17.742-7.959-17.742-17.742v-286.011c0-9.783 7.959-17.742 17.742-17.742s17.742 7.959 17.742 17.742v286.011c0 9.783-7.959 17.742-17.742 17.742zm50.484 0c-9.783 0-17.742-7.959-17.742-17.742v-286.011c0-9.783 7.959-17.742 17.742-17.742s17.742 7.959 17.742 17.742v286.011c0 9.783-7.959 17.742-17.742 17.742zm50.484 0c-9.783 0-17.742-7.959-17.742-17.742v-286.011c0-9.783 7.959-17.742 17.742-17.742s17.742 7.959 17.742 17.742v286.011c0 9.783-7.959 17.742-17.742 17.742z"/><path d="m42.856 295.833c-4.142 0-7.5 3.357-7.5 7.5v9.344c0 4.143 3.358 7.5 7.5 7.5s7.5-3.357 7.5-7.5v-9.344c0-4.142-3.357-7.5-7.5-7.5z"/></g></svg>