<?xml version="1.0" standalone="no"?>
<!DOCTYPE svg PUBLIC "-//W3C//DTD SVG 20010904//EN"
 "http://www.w3.org/TR/2001/REC-SVG-20010904/DTD/svg10.dtd">
<svg version="1.0" xmlns="http://www.w3.org/2000/svg"
 width="832.000000pt" height="890.000000pt" viewBox="0 0 832.000000 890.000000"
 preserveAspectRatio="xMidYMid meet">

<g transform="translate(0.000000,890.000000) scale(0.100000,-0.100000)"
fill="#000000" stroke="none">
<path d="M4000 8879 c-304 -31 -617 -143 -880 -317 -242 -160 -435 -367 -632
-677 -107 -168 -1326 -2623 -1808 -3640 -376 -793 -574 -1296 -634 -1610 -152
-792 177 -1628 841 -2137 281 -216 653 -378 1032 -451 101 -19 149 -22 366
-22 217 0 265 3 366 22 248 48 460 120 698 239 262 130 479 274 719 477 58 48
113 87 124 87 11 0 47 -26 81 -58 440 -415 897 -653 1437 -749 185 -33 479
-37 655 -9 722 114 1384 582 1704 1206 149 290 226 586 238 925 7 193 -7 355
-48 559 -61 306 -131 477 -627 1531 -970 2060 -1428 2984 -1781 3592 -142 245
-269 407 -436 556 -391 348 -918 526 -1415 476z m318 -339 c504 -53 925 -328
1201 -782 292 -482 975 -1857 1851 -3728 431 -921 466 -1002 520 -1203 220
-828 -22 -1591 -655 -2067 -373 -280 -835 -429 -1255 -405 -306 17 -561 87
-860 236 -235 118 -374 217 -629 450 -212 194 -229 208 -267 215 -59 11 -109
-18 -259 -147 -461 -397 -828 -603 -1255 -703 -167 -39 -280 -49 -493 -43
-217 6 -354 30 -544 93 -779 260 -1292 929 -1320 1719 -10 297 27 496 157 840
225 596 579 1346 1641 3475 547 1096 630 1253 746 1408 339 452 884 698 1421
642z"/>
<path d="M3970 8010 c-325 -69 -566 -258 -772 -602 -133 -223 -1518 -3032
-1885 -3823 -219 -472 -391 -920 -428 -1115 -26 -136 -25 -343 4 -477 57 -271
174 -487 376 -689 208 -209 475 -351 772 -411 130 -26 385 -24 513 4 227 51
457 153 681 302 151 101 242 172 482 381 244 212 246 217 101 450 -399 641
-572 1037 -640 1465 -24 157 -30 468 -10 590 36 217 122 398 256 535 88 90
168 146 294 206 351 166 703 144 1014 -63 152 -101 283 -246 361 -400 152
-302 128 -788 -69 -1408 -97 -303 -274 -698 -431 -960 -88 -147 -96 -173 -74
-231 18 -48 158 -188 395 -395 198 -173 276 -229 430 -308 248 -127 437 -179
675 -188 227 -8 403 28 610 126 445 211 724 554 812 999 21 107 23 363 4 472
-20 120 -68 293 -110 398 -85 211 -729 1580 -1321 2807 -421 872 -762 1530
-954 1838 -130 209 -324 374 -532 453 -172 65 -380 82 -554 44z m374 -340
c123 -31 208 -82 311 -185 96 -96 129 -148 371 -590 261 -477 1208 -2434 1820
-3762 168 -365 196 -434 228 -557 83 -317 49 -609 -98 -860 -88 -150 -294
-326 -482 -412 -140 -63 -234 -86 -384 -91 -224 -9 -369 25 -605 141 -133 65
-166 87 -286 187 -75 63 -180 156 -235 207 l-99 92 43 78 c88 157 242 482 305
642 149 379 255 788 287 1109 57 580 -137 1036 -578 1351 -353 252 -763 319
-1169 189 -503 -161 -830 -520 -934 -1028 -26 -127 -36 -406 -20 -567 52 -507
209 -920 593 -1562 61 -100 108 -189 105 -196 -13 -33 -316 -279 -467 -379
-453 -299 -864 -344 -1275 -140 -114 57 -200 120 -296 220 -123 126 -199 263
-246 442 -33 126 -37 333 -9 456 50 215 270 741 593 1420 443 928 1634 3319
1714 3440 29 44 91 119 138 166 98 97 200 156 323 189 101 26 250 26 352 0z"/>
<path d="M4095 4419 c-32 -5 -91 -24 -130 -43 -132 -63 -222 -168 -272 -320
-24 -73 -27 -96 -27 -226 -1 -300 82 -594 273 -971 134 -266 171 -306 272
-297 78 8 115 44 171 170 105 236 215 589 264 848 71 375 5 618 -208 759 -98
66 -229 97 -343 80z m143 -369 c22 -14 43 -40 60 -78 25 -53 27 -66 27 -192
-1 -150 -16 -241 -70 -430 -37 -127 -64 -193 -80 -193 -14 1 -70 138 -105 256
-43 144 -63 267 -64 397 -1 104 1 120 24 165 44 89 133 121 208 75z"/>
</g>
</svg>
